<svg data-name="Layer 1" xmlns="http://www.w3.org/2000/svg" viewBox="0 0 122.88 96.44"><path d="M12 73.51q.2-34.74.39-69.38A3.21 3.21 0 0115 1C23.4-.75 36.64-.31 45.63 3.14a35.46 35.46 0 0116 11.65 37.34 37.34 0 0116-11.15C86.12.4 99-.38 108.23 1A3.2 3.2 0 01111 4.14V73.8a3.21 3.21 0 01-3.23 3.2 3.49 3.49 0 01-.74-.09 53.45 53.45 0 00-23.45 2.19 71 71 0 00-15.77 8.26 69.09 69.09 0 0121.24-3.1 125.42 125.42 0 0127.41 3.48v-72.9h3.21a3.21 3.21 0 013.21 3.21v73.89a3.21 3.21 0 01-3.21 3.21 3.18 3.18 0 01-1-.17A121.77 121.77 0 0089 90.65a61.89 61.89 0 00-25.76 5.26 3.39 3.39 0 01-3.64 0 61.86 61.86 0 00-25.76-5.26A121.77 121.77 0 004.24 95a3.18 3.18 0 01-1 .17A3.21 3.21 0 010 91.94V18.05a3.21 3.21 0 013.21-3.21h3.21v72.9a125.42 125.42 0 0127.41-3.48 68.84 68.84 0 0122.71 3.57A48.7 48.7 0 0041 79.39c-7-2.3-17.68-3.07-25.49-2.4A3.21 3.21 0 0112 74.06a5 5 0 010-.55zm61.64-9.11a2.3 2.3 0 11-2.5-3.85 51.46 51.46 0 0111.8-5.4 53.73 53.73 0 0113-2.67 2.29 2.29 0 11.25 4.58 49.42 49.42 0 00-11.79 2.46 46.73 46.73 0 00-10.76 4.88zm.2-17.76a2.29 2.29 0 01-2.46-3.87 52.71 52.71 0 0111.74-5.3 54.12 54.12 0 0112.78-2.62 2.3 2.3 0 01.25 4.59 49.3 49.3 0 00-11.63 2.4 48 48 0 00-10.68 4.8zm.06-17.7a2.3 2.3 0 11-2.46-3.89 52.54 52.54 0 0111.72-5.27 53.71 53.71 0 0112.74-2.6 2.29 2.29 0 11.25 4.58 49.35 49.35 0 00-11.59 2.39 47.91 47.91 0 00-10.66 4.79zM51.74 60.55a2.3 2.3 0 11-2.5 3.85 46.73 46.73 0 00-10.72-4.88 49.42 49.42 0 00-11.79-2.46 2.29 2.29 0 11.27-4.58 53.73 53.73 0 0113 2.67 51.46 51.46 0 0111.8 5.4zm-.24-17.78a2.29 2.29 0 01-2.5 3.87 48 48 0 00-10.68-4.8 49.3 49.3 0 00-11.63-2.4 2.3 2.3 0 01.31-4.59 54.12 54.12 0 0112.78 2.62 52.71 52.71 0 0111.74 5.3zm-.06-17.72A2.3 2.3 0 1149 28.94a47.91 47.91 0 00-10.66-4.79 49.35 49.35 0 00-11.59-2.39 2.29 2.29 0 11.25-4.58 53.71 53.71 0 0112.74 2.6 52.54 52.54 0 0111.72 5.27zM104.56 7c-7.42-.7-18.06.12-24.73 2.65A30 30 0 0064.7 21.46v60.26a76.76 76.76 0 0116.72-8.66 62.85 62.85 0 0123.14-2.87V7zM58.28 81.1V21.37c-3.36-5.93-8.79-9.89-14.93-12.24-7-2.67-17.75-3.27-24.56-2.3l-.36 63.56c7.43-.27 17.69.68 24.52 2.91a54.94 54.94 0 0115.33 7.8z"/></svg>